<?xml version="1.0" encoding="UTF-8" standalone="no"?><svg xmlns="http://www.w3.org/2000/svg" xmlns:xlink="http://www.w3.org/1999/xlink" contentStyleType="text/css" height="2032px" preserveAspectRatio="none" style="width:1596px;height:2032px;background:#FFFFFF;" version="1.1" viewBox="0 0 1596 2032" width="1596px" zoomAndPan="magnify"><defs/><g><text fill="#000000" font-family="sans-serif" font-size="14" font-weight="bold" lengthAdjust="spacing" textLength="176" x="708.5" y="33.5352">Virtualization Mind map</text><rect fill="#FFD700" height="43.5547" rx="12.5" ry="12.5" style="stroke:#181818;stroke-width:2.0;" width="162" x="10" y="1012.1152"/><text fill="#000000" font-family="sans-serif" font-size="20" font-weight="bold" lengthAdjust="spacing" textLength="142" x="20" y="1041.4512">Virtualization</text><rect fill="#FFC0CB" height="38.8438" rx="12.5" ry="12.5" style="stroke:#181818;stroke-width:1.5;" width="150" x="222" y="1014.4707"/><text fill="#000000" font-family="sans-serif" font-size="16" font-weight="bold" lengthAdjust="spacing" textLength="130" x="232" y="1039.9395">Hypervisor level</text><rect fill="#90EE90" height="36.4883" rx="12.5" ry="12.5" style="stroke:#181818;stroke-width:1.5;" width="98" x="422" y="917.9395"/><text fill="#000000" font-family="sans-serif" font-size="14" font-weight="bold" lengthAdjust="spacing" textLength="78" x="432" y="941.4746">Hypervisor</text><rect fill="#ADD8E6" height="85.9531" rx="12.5" ry="12.5" style="stroke:#181818;stroke-width:1.5;" width="274" x="570" y="57.4883"/><text fill="#000000" font-family="sans-serif" font-size="14" font-weight="bold" lengthAdjust="spacing" textLength="58" x="580" y="81.0234">Concept</text><text fill="#000000" font-family="sans-serif" font-size="14" lengthAdjust="spacing" textLength="254" x="580" y="97.5117">SW Layer that abstracts HW resources</text><text fill="#000000" font-family="sans-serif" font-size="14" lengthAdjust="spacing" textLength="243" x="580" y="114">to enable the execution of different</text><text fill="#000000" font-family="sans-serif" font-size="14" lengthAdjust="spacing" textLength="237" x="580" y="130.4883">VMs on the same physical machine</text><text fill="#000000" font-family="sans-serif" font-size="14" lengthAdjust="spacing" textLength="62" x="897" y="105.7559">manages</text><rect fill="#D3D3D3" height="69.4648" rx="12.5" ry="12.5" style="stroke:#181818;stroke-width:1.5;" width="229" x="1009" y="65.7324"/><text fill="#000000" font-family="sans-serif" font-size="14" font-weight="bold" lengthAdjust="spacing" textLength="113" x="1019" y="89.2676">Virtual Machine</text><ellipse cx="1024.5" cy="101.209" fill="#000000" rx="2.5" ry="2.5" style="stroke:#000000;stroke-width:0.0;"/><text fill="#000000" font-family="sans-serif" font-size="14" lengthAdjust="spacing" textLength="159" x="1031" y="105.7559">Execution environment</text><ellipse cx="1024.5" cy="117.6973" fill="#000000" rx="2.5" ry="2.5" style="stroke:#000000;stroke-width:0.0;"/><text fill="#000000" font-family="sans-serif" font-size="14" lengthAdjust="spacing" textLength="197" x="1031" y="122.2441">Typically, guest OS + app SW</text><path d="M959,100.4648 L969,100.4648 C984,100.4648 984,100.4648 999,100.4648 L1009,100.4648 " fill="none" style="stroke:#181818;stroke-width:1.0;"/><path d="M844,100.4648 L854,100.4648 C869,100.4648 869,100.4648 884,100.4648 L894,100.4648 " fill="none" style="stroke:#181818;stroke-width:1.0;"/><path d="M520,936.1836 L530,936.1836 C545,936.1836 545,100.4648 560,100.4648 L570,100.4648 " fill="none" style="stroke:#181818;stroke-width:1.0;"/><text fill="#000000" font-family="sans-serif" font-size="14" font-weight="bold" lengthAdjust="spacing" textLength="43" x="573" y="580.1035">Types</text><text fill="#000000" font-family="sans-serif" font-size="14" font-weight="bold" lengthAdjust="spacing" textLength="102" x="669" y="271.709">Host presence</text><text fill="#000000" font-family="sans-serif" font-size="14" lengthAdjust="spacing" textLength="19" x="824" y="215.2207">No</text><rect fill="#FFE4C4" height="52.9766" rx="12.5" ry="12.5" style="stroke:#181818;stroke-width:1.5;" width="163" x="893" y="183.4414"/><text fill="#000000" font-family="sans-serif" font-size="14" font-weight="bold" lengthAdjust="spacing" textLength="45" x="903" y="206.9766">Type I</text><text fill="#000000" font-family="sans-serif" font-size="14" lengthAdjust="spacing" textLength="86" x="952" y="206.9766">(Bare-metal)</text><ellipse cx="908.5" cy="218.918" fill="#000000" rx="2.5" ry="2.5" style="stroke:#000000;stroke-width:0.0;"/><text fill="#000000" font-family="sans-serif" font-size="14" lengthAdjust="spacing" textLength="131" x="915" y="223.4648">Acts as a classic OS</text><text fill="#000000" font-family="sans-serif" font-size="14" lengthAdjust="spacing" textLength="25" x="1109" y="215.2207">e.g.</text><rect fill="#FFFFFF" height="36.4883" rx="12.5" ry="12.5" style="stroke:#181818;stroke-width:1.5;" width="82" x="1184" y="163.4414"/><text fill="#000000" font-family="sans-serif" font-size="14" lengthAdjust="spacing" textLength="62" x="1194" y="186.9766">Jailhouse</text><path d="M1134,209.9297 L1144,209.9297 C1159,209.9297 1159,181.6855 1174,181.6855 L1184,181.6855 " fill="none" style="stroke:#181818;stroke-width:1.0;"/><rect fill="#FFFFFF" height="36.4883" rx="12.5" ry="12.5" style="stroke:#181818;stroke-width:1.5;" width="45" x="1184" y="219.9297"/><text fill="#000000" font-family="sans-serif" font-size="14" lengthAdjust="spacing" textLength="25" x="1194" y="243.4648">Bao</text><path d="M1134,209.9297 L1144,209.9297 C1159,209.9297 1159,238.1738 1174,238.1738 L1184,238.1738 " fill="none" style="stroke:#181818;stroke-width:1.0;"/><path d="M1056,209.9297 L1066,209.9297 C1081,209.9297 1081,209.9297 1096,209.9297 L1106,209.9297 " fill="none" style="stroke:#181818;stroke-width:1.0;"/><path d="M843,209.9297 L853,209.9297 C868,209.9297 868,209.9297 883,209.9297 L893,209.9297 " fill="none" style="stroke:#181818;stroke-width:1.0;"/><path d="M771,266.418 L781,266.418 C796,266.418 796,209.9297 811,209.9297 L821,209.9297 " fill="none" style="stroke:#181818;stroke-width:1.0;"/><text fill="#000000" font-family="sans-serif" font-size="14" lengthAdjust="spacing" textLength="24" x="824" y="328.1973">Yes</text><rect fill="#FFE4C4" height="52.9766" rx="12.5" ry="12.5" style="stroke:#181818;stroke-width:1.5;" width="265" x="898" y="296.418"/><text fill="#000000" font-family="sans-serif" font-size="14" font-weight="bold" lengthAdjust="spacing" textLength="50" x="908" y="319.9531">Type II</text><text fill="#000000" font-family="sans-serif" font-size="14" lengthAdjust="spacing" textLength="58" x="962" y="319.9531">(Hosted)</text><ellipse cx="913.5" cy="331.8945" fill="#000000" rx="2.5" ry="2.5" style="stroke:#000000;stroke-width:0.0;"/><text fill="#000000" font-family="sans-serif" font-size="14" lengthAdjust="spacing" textLength="233" x="920" y="336.4414">Executed on top of an existing OS</text><text fill="#000000" font-family="sans-serif" font-size="14" lengthAdjust="spacing" textLength="25" x="1216" y="328.1973">e.g.</text><rect fill="#FFFFFF" height="36.4883" rx="12.5" ry="12.5" style="stroke:#181818;stroke-width:1.5;" width="50" x="1291" y="276.418"/><text fill="#000000" font-family="sans-serif" font-size="14" lengthAdjust="spacing" textLength="30" x="1301" y="299.9531">KVM</text><path d="M1241,322.9063 L1251,322.9063 C1266,322.9063 1266,294.6621 1281,294.6621 L1291,294.6621 " fill="none" style="stroke:#181818;stroke-width:1.0;"/><rect fill="#FFFFFF" height="36.4883" rx="12.5" ry="12.5" style="stroke:#181818;stroke-width:1.5;" width="46" x="1291" y="332.9063"/><text fill="#000000" font-family="sans-serif" font-size="14" lengthAdjust="spacing" textLength="26" x="1301" y="356.4414">Xen</text><path d="M1241,322.9063 L1251,322.9063 C1266,322.9063 1266,351.1504 1281,351.1504 L1291,351.1504 " fill="none" style="stroke:#181818;stroke-width:1.0;"/><path d="M1163,322.9063 L1173,322.9063 C1188,322.9063 1188,322.9063 1203,322.9063 L1213,322.9063 " fill="none" style="stroke:#181818;stroke-width:1.0;"/><path d="M848,322.9063 L858,322.9063 C873,322.9063 873,322.9063 888,322.9063 L898,322.9063 " fill="none" style="stroke:#181818;stroke-width:1.0;"/><path d="M771,266.418 L781,266.418 C796,266.418 796,322.9063 811,322.9063 L821,322.9063 " fill="none" style="stroke:#181818;stroke-width:1.0;"/><path d="M616,574.8125 L626,574.8125 C641,574.8125 641,266.418 656,266.418 L666,266.418 " fill="none" style="stroke:#181818;stroke-width:1.0;"/><text fill="#000000" font-family="sans-serif" font-size="14" font-weight="bold" lengthAdjust="spacing" textLength="121" x="669" y="514.1504">Guest awareness</text><text fill="#000000" font-family="sans-serif" font-size="14" font-weight="bold" lengthAdjust="spacing" textLength="124" x="669" y="530.6387">of the hypervisor</text><text fill="#000000" font-family="sans-serif" font-size="14" lengthAdjust="spacing" textLength="19" x="846" y="469.418">No</text><rect fill="#FFE4C4" height="118.9297" rx="12.5" ry="12.5" style="stroke:#181818;stroke-width:1.5;" width="261" x="915" y="404.6621"/><text fill="#000000" font-family="sans-serif" font-size="14" font-weight="bold" lengthAdjust="spacing" textLength="131" x="925" y="428.1973">Full Virtualization</text><ellipse cx="930.5" cy="440.1387" fill="#000000" rx="2.5" ry="2.5" style="stroke:#000000;stroke-width:0.0;"/><text fill="#000000" font-family="sans-serif" font-size="14" lengthAdjust="spacing" textLength="218" x="937" y="444.6855">fully abstracts the HW resources</text><text fill="#000000" font-family="sans-serif" font-size="14" lengthAdjust="spacing" textLength="89" x="933" y="461.1738">to the guests</text><ellipse cx="930.5" cy="473.1152" fill="#000000" rx="2.5" ry="2.5" style="stroke:#000000;stroke-width:0.0;"/><text fill="#000000" font-family="sans-serif" font-size="14" lengthAdjust="spacing" textLength="229" x="937" y="477.6621">Guest OS or apps run unmodified</text><ellipse cx="930.5" cy="489.6035" fill="#000000" rx="2.5" ry="2.5" style="stroke:#000000;stroke-width:0.0;"/><text fill="#000000" font-family="sans-serif" font-size="14" lengthAdjust="spacing" textLength="219" x="937" y="494.1504">emulates privileged instructions</text><text fill="#000000" font-family="sans-serif" font-size="14" lengthAdjust="spacing" textLength="104" x="933" y="510.6387">and operations</text><text fill="#000000" font-family="sans-serif" font-size="14" lengthAdjust="spacing" textLength="25" x="1229" y="469.418">e.g.</text><rect fill="#FFFFFF" height="36.4883" rx="12.5" ry="12.5" style="stroke:#181818;stroke-width:1.5;" width="108" x="1304" y="389.3945"/><text fill="#000000" font-family="sans-serif" font-size="14" lengthAdjust="spacing" textLength="88" x="1314" y="412.9297">VMWare ESXi</text><path d="M1254,464.127 L1264,464.127 C1279,464.127 1279,407.6387 1294,407.6387 L1304,407.6387 " fill="none" style="stroke:#181818;stroke-width:1.0;"/><rect fill="#FFFFFF" height="36.4883" rx="12.5" ry="12.5" style="stroke:#181818;stroke-width:1.5;" width="50" x="1304" y="445.8828"/><text fill="#000000" font-family="sans-serif" font-size="14" lengthAdjust="spacing" textLength="30" x="1314" y="469.418">KVM</text><path d="M1254,464.127 L1264,464.127 C1279,464.127 1279,464.127 1294,464.127 L1304,464.127 " fill="none" style="stroke:#181818;stroke-width:1.0;"/><rect fill="#FFFFFF" height="36.4883" rx="12.5" ry="12.5" style="stroke:#181818;stroke-width:1.5;" width="145" x="1304" y="502.3711"/><text fill="#000000" font-family="sans-serif" font-size="14" lengthAdjust="spacing" textLength="125" x="1314" y="525.9063">Microsoft Hyper-V</text><path d="M1254,464.127 L1264,464.127 C1279,464.127 1279,520.6152 1294,520.6152 L1304,520.6152 " fill="none" style="stroke:#181818;stroke-width:1.0;"/><path d="M1176,464.127 L1186,464.127 C1201,464.127 1201,464.127 1216,464.127 L1226,464.127 " fill="none" style="stroke:#181818;stroke-width:1.0;"/><path d="M865,464.127 L875,464.127 C890,464.127 890,464.127 905,464.127 L915,464.127 " fill="none" style="stroke:#181818;stroke-width:1.0;"/><path d="M793,517.1035 L803,517.1035 C818,517.1035 818,464.127 833,464.127 L843,464.127 " fill="none" style="stroke:#181818;stroke-width:1.0;"/><text fill="#000000" font-family="sans-serif" font-size="14" lengthAdjust="spacing" textLength="24" x="846" y="607.127">Yes</text><rect fill="#FFE4C4" height="85.9531" rx="12.5" ry="12.5" style="stroke:#181818;stroke-width:1.5;" width="269" x="920" y="558.8594"/><text fill="#000000" font-family="sans-serif" font-size="14" font-weight="bold" lengthAdjust="spacing" textLength="128" x="930" y="582.3945">Paravirtualization</text><ellipse cx="935.5" cy="594.3359" fill="#000000" rx="2.5" ry="2.5" style="stroke:#000000;stroke-width:0.0;"/><text fill="#000000" font-family="sans-serif" font-size="14" lengthAdjust="spacing" textLength="186" x="942" y="598.8828">Guest OS must be modified</text><ellipse cx="935.5" cy="610.8242" fill="#000000" rx="2.5" ry="2.5" style="stroke:#000000;stroke-width:0.0;"/><text fill="#000000" font-family="sans-serif" font-size="14" lengthAdjust="spacing" textLength="237" x="942" y="615.3711">Communicates with the hypervisor</text><text fill="#000000" font-family="sans-serif" font-size="14" lengthAdjust="spacing" textLength="129" x="938" y="631.8594">through hypercalls</text><text fill="#000000" font-family="sans-serif" font-size="14" lengthAdjust="spacing" textLength="25" x="1242" y="607.127">e.g.</text><rect fill="#FFFFFF" height="36.4883" rx="12.5" ry="12.5" style="stroke:#181818;stroke-width:1.5;" width="46" x="1317" y="583.5918"/><text fill="#000000" font-family="sans-serif" font-size="14" lengthAdjust="spacing" textLength="26" x="1327" y="607.127">Xen</text><path d="M1267,601.8359 L1277,601.8359 C1292,601.8359 1292,601.8359 1307,601.8359 L1317,601.8359 " fill="none" style="stroke:#181818;stroke-width:1.0;"/><path d="M1189,601.8359 L1199,601.8359 C1214,601.8359 1214,601.8359 1229,601.8359 L1239,601.8359 " fill="none" style="stroke:#181818;stroke-width:1.0;"/><path d="M870,601.8359 L880,601.8359 C895,601.8359 895,601.8359 910,601.8359 L920,601.8359 " fill="none" style="stroke:#181818;stroke-width:1.0;"/><path d="M793,517.1035 L803,517.1035 C818,517.1035 818,601.8359 833,601.8359 L843,601.8359 " fill="none" style="stroke:#181818;stroke-width:1.0;"/><path d="M616,574.8125 L626,574.8125 C641,574.8125 641,517.1035 656,517.1035 L666,517.1035 " fill="none" style="stroke:#181818;stroke-width:1.0;"/><text fill="#000000" font-family="sans-serif" font-size="14" font-weight="bold" lengthAdjust="spacing" textLength="73" x="669" y="822.5449">Real-time</text><text fill="#000000" font-family="sans-serif" font-size="14" font-weight="bold" lengthAdjust="spacing" textLength="56" x="669" y="839.0332">Support</text><text fill="#000000" font-family="sans-serif" font-size="14" lengthAdjust="spacing" textLength="19" x="795" y="688.3477">No</text><rect fill="#FFE4C4" height="36.4883" rx="12.5" ry="12.5" style="stroke:#181818;stroke-width:1.5;" width="123" x="864" y="664.8125"/><text fill="#000000" font-family="sans-serif" font-size="14" font-weight="bold" lengthAdjust="spacing" textLength="103" x="874" y="688.3477">Non real-time</text><path d="M814,683.0566 L824,683.0566 C839,683.0566 839,683.0566 854,683.0566 L864,683.0566 " fill="none" style="stroke:#181818;stroke-width:1.0;"/><path d="M742,825.498 L752,825.498 C767,825.498 767,683.0566 782,683.0566 L792,683.0566 " fill="none" style="stroke:#181818;stroke-width:1.0;"/><text fill="#000000" font-family="sans-serif" font-size="14" lengthAdjust="spacing" textLength="24" x="795" y="859.0332">Yes</text><rect fill="#FFE4C4" height="135.418" rx="12.5" ry="12.5" style="stroke:#181818;stroke-width:1.5;" width="218" x="869" y="786.0332"/><text fill="#000000" font-family="sans-serif" font-size="14" font-weight="bold" lengthAdjust="spacing" textLength="73" x="879" y="809.5684">Real-time</text><ellipse cx="884.5" cy="821.5098" fill="#000000" rx="2.5" ry="2.5" style="stroke:#000000;stroke-width:0.0;"/><text fill="#000000" font-family="sans-serif" font-size="14" lengthAdjust="spacing" textLength="158" x="891" y="826.0566">Explicit support for the</text><text fill="#000000" font-family="sans-serif" font-size="14" lengthAdjust="spacing" textLength="168" x="887" y="842.5449">management of the time</text><text fill="#000000" font-family="sans-serif" font-size="14" lengthAdjust="spacing" textLength="128" x="887" y="859.0332">budget of each VM</text><ellipse cx="884.5" cy="870.9746" fill="#000000" rx="2.5" ry="2.5" style="stroke:#000000;stroke-width:0.0;"/><text fill="#000000" font-family="sans-serif" font-size="14" lengthAdjust="spacing" textLength="186" x="891" y="875.5215">e.g., scheduling algorithms</text><ellipse cx="884.5" cy="887.4629" fill="#000000" rx="2.5" ry="2.5" style="stroke:#000000;stroke-width:0.0;"/><text fill="#000000" font-family="sans-serif" font-size="14" lengthAdjust="spacing" textLength="113" x="891" y="892.0098">Meet the explicit</text><text fill="#000000" font-family="sans-serif" font-size="14" lengthAdjust="spacing" textLength="124" x="887" y="908.498">timing constraints</text><rect fill="#E6E6FA" height="69.4648" rx="12.5" ry="12.5" style="stroke:#181818;stroke-width:1.5;" width="174" x="1137" y="733.0566"/><text fill="#000000" font-family="sans-serif" font-size="14" font-weight="bold" lengthAdjust="spacing" textLength="62" x="1147" y="756.5918">Dynamic</text><ellipse cx="1152.5" cy="768.5332" fill="#000000" rx="2.5" ry="2.5" style="stroke:#000000;stroke-width:0.0;"/><text fill="#000000" font-family="sans-serif" font-size="14" lengthAdjust="spacing" textLength="142" x="1159" y="773.0801">Maps VM resource in</text><text fill="#000000" font-family="sans-serif" font-size="14" lengthAdjust="spacing" textLength="136" x="1155" y="789.5684">run-time as needed</text><text fill="#000000" font-family="sans-serif" font-size="14" lengthAdjust="spacing" textLength="25" x="1364" y="773.0801">e.g.</text><rect fill="#FFFFFF" height="36.4883" rx="12.5" ry="12.5" style="stroke:#181818;stroke-width:1.5;" width="50" x="1439" y="721.3008"/><text fill="#000000" font-family="sans-serif" font-size="14" lengthAdjust="spacing" textLength="30" x="1449" y="744.8359">KVM</text><path d="M1389,767.7891 L1399,767.7891 C1414,767.7891 1414,739.5449 1429,739.5449 L1439,739.5449 " fill="none" style="stroke:#181818;stroke-width:1.0;"/><rect fill="#FFFFFF" height="36.4883" rx="12.5" ry="12.5" style="stroke:#181818;stroke-width:1.5;" width="145" x="1439" y="777.7891"/><text fill="#000000" font-family="sans-serif" font-size="14" lengthAdjust="spacing" textLength="125" x="1449" y="801.3242">Microsoft Hyper-V</text><path d="M1389,767.7891 L1399,767.7891 C1414,767.7891 1414,796.0332 1429,796.0332 L1439,796.0332 " fill="none" style="stroke:#181818;stroke-width:1.0;"/><path d="M1311,767.7891 L1321,767.7891 C1336,767.7891 1336,767.7891 1351,767.7891 L1361,767.7891 " fill="none" style="stroke:#181818;stroke-width:1.0;"/><path d="M1087,853.7422 L1097,853.7422 C1112,853.7422 1112,767.7891 1127,767.7891 L1137,767.7891 " fill="none" style="stroke:#181818;stroke-width:1.0;"/><rect fill="#E6E6FA" height="151.9063" rx="12.5" ry="12.5" style="stroke:#181818;stroke-width:1.5;" width="228" x="1137" y="834.2773"/><text fill="#000000" font-family="sans-serif" font-size="14" font-weight="bold" lengthAdjust="spacing" textLength="40" x="1147" y="857.8125">Static</text><ellipse cx="1152.5" cy="869.7539" fill="#000000" rx="2.5" ry="2.5" style="stroke:#000000;stroke-width:0.0;"/><text fill="#000000" font-family="sans-serif" font-size="14" lengthAdjust="spacing" textLength="171" x="1159" y="874.3008">Configuration layers that</text><text fill="#000000" font-family="sans-serif" font-size="14" lengthAdjust="spacing" textLength="156" x="1155" y="890.7891">partition HW resources</text><ellipse cx="1152.5" cy="902.7305" fill="#000000" rx="2.5" ry="2.5" style="stroke:#000000;stroke-width:0.0;"/><text fill="#000000" font-family="sans-serif" font-size="14" lengthAdjust="spacing" textLength="196" x="1159" y="907.2773">1:1 mapping between virtual</text><text fill="#000000" font-family="sans-serif" font-size="14" lengthAdjust="spacing" textLength="124" x="1155" y="923.7656">and physical CPUs</text><ellipse cx="1152.5" cy="935.707" fill="#000000" rx="2.5" ry="2.5" style="stroke:#000000;stroke-width:0.0;"/><text fill="#000000" font-family="sans-serif" font-size="14" lengthAdjust="spacing" textLength="196" x="1159" y="940.2539">Devices mapped directly into</text><text fill="#000000" font-family="sans-serif" font-size="14" lengthAdjust="spacing" textLength="165" x="1155" y="956.7422">the guest memory areas</text><ellipse cx="1152.5" cy="968.6836" fill="#000000" rx="2.5" ry="2.5" style="stroke:#000000;stroke-width:0.0;"/><text fill="#000000" font-family="sans-serif" font-size="14" lengthAdjust="spacing" textLength="179" x="1159" y="973.2305">Smaller footprint, typically</text><text fill="#000000" font-family="sans-serif" font-size="14" lengthAdjust="spacing" textLength="25" x="1418" y="915.5215">e.g.</text><rect fill="#FFFFFF" height="36.4883" rx="12.5" ry="12.5" style="stroke:#181818;stroke-width:1.5;" width="82" x="1493" y="863.7422"/><text fill="#000000" font-family="sans-serif" font-size="14" lengthAdjust="spacing" textLength="62" x="1503" y="887.2773">Jailhouse</text><path d="M1443,910.2305 L1453,910.2305 C1468,910.2305 1468,881.9863 1483,881.9863 L1493,881.9863 " fill="none" style="stroke:#181818;stroke-width:1.0;"/><rect fill="#FFFFFF" height="36.4883" rx="12.5" ry="12.5" style="stroke:#181818;stroke-width:1.5;" width="45" x="1493" y="920.2305"/><text fill="#000000" font-family="sans-serif" font-size="14" lengthAdjust="spacing" textLength="25" x="1503" y="943.7656">Bao</text><path d="M1443,910.2305 L1453,910.2305 C1468,910.2305 1468,938.4746 1483,938.4746 L1493,938.4746 " fill="none" style="stroke:#181818;stroke-width:1.0;"/><path d="M1365,910.2305 L1375,910.2305 C1390,910.2305 1390,910.2305 1405,910.2305 L1415,910.2305 " fill="none" style="stroke:#181818;stroke-width:1.0;"/><path d="M1087,853.7422 L1097,853.7422 C1112,853.7422 1112,910.2305 1127,910.2305 L1137,910.2305 " fill="none" style="stroke:#181818;stroke-width:1.0;"/><path d="M819,853.7422 L829,853.7422 C844,853.7422 844,853.7422 859,853.7422 L869,853.7422 " fill="none" style="stroke:#181818;stroke-width:1.0;"/><path d="M742,825.498 L752,825.498 C767,825.498 767,853.7422 782,853.7422 L792,853.7422 " fill="none" style="stroke:#181818;stroke-width:1.0;"/><path d="M616,574.8125 L626,574.8125 C641,574.8125 641,825.498 656,825.498 L666,825.498 " fill="none" style="stroke:#181818;stroke-width:1.0;"/><path d="M520,936.1836 L530,936.1836 C545,936.1836 545,574.8125 560,574.8125 L570,574.8125 " fill="none" style="stroke:#181818;stroke-width:1.0;"/><text fill="#000000" font-family="sans-serif" font-size="14" font-weight="bold" lengthAdjust="spacing" textLength="90" x="573" y="1086.207">Applications</text><rect fill="#F0FFFF" height="36.4883" rx="12.5" ry="12.5" style="stroke:#181818;stroke-width:1.5;" width="93" x="713" y="1006.1836"/><text fill="#000000" font-family="sans-serif" font-size="14" lengthAdjust="spacing" textLength="73" x="723" y="1029.7188">Embedded</text><path d="M663,1080.916 L673,1080.916 C688,1080.916 688,1024.4277 703,1024.4277 L713,1024.4277 " fill="none" style="stroke:#181818;stroke-width:1.0;"/><rect fill="#F0FFFF" height="36.4883" rx="12.5" ry="12.5" style="stroke:#181818;stroke-width:1.5;" width="127" x="713" y="1062.6719"/><text fill="#000000" font-family="sans-serif" font-size="14" lengthAdjust="spacing" textLength="107" x="723" y="1086.207">System/Mission</text><path d="M663,1080.916 L673,1080.916 C688,1080.916 688,1080.916 703,1080.916 L713,1080.916 " fill="none" style="stroke:#181818;stroke-width:1.0;"/><rect fill="#F0FFFF" height="36.4883" rx="12.5" ry="12.5" style="stroke:#181818;stroke-width:1.5;" width="133" x="713" y="1119.1602"/><text fill="#000000" font-family="sans-serif" font-size="14" lengthAdjust="spacing" textLength="113" x="723" y="1142.6953">General Purpose</text><path d="M663,1080.916 L673,1080.916 C688,1080.916 688,1137.4043 703,1137.4043 L713,1137.4043 " fill="none" style="stroke:#181818;stroke-width:1.0;"/><path d="M520,936.1836 L530,936.1836 C545,936.1836 545,1080.916 560,1080.916 L570,1080.916 " fill="none" style="stroke:#181818;stroke-width:1.0;"/><text fill="#000000" font-family="sans-serif" font-size="14" font-weight="bold" lengthAdjust="spacing" textLength="101" x="573" y="1283.916">Combinations</text><rect fill="#F0FFFF" height="36.4883" rx="12.5" ry="12.5" style="stroke:#181818;stroke-width:1.5;" width="219" x="724" y="1175.6484"/><text fill="#000000" font-family="sans-serif" font-size="14" lengthAdjust="spacing" textLength="199" x="734" y="1199.1836">Real-time hypervisor + RTOS</text><path d="M674,1278.625 L684,1278.625 C699,1278.625 699,1193.8926 714,1193.8926 L724,1193.8926 " fill="none" style="stroke:#181818;stroke-width:1.0;"/><rect fill="#F0FFFF" height="36.4883" rx="12.5" ry="12.5" style="stroke:#181818;stroke-width:1.5;" width="219" x="724" y="1232.1367"/><text fill="#000000" font-family="sans-serif" font-size="14" lengthAdjust="spacing" textLength="199" x="734" y="1255.6719">Real-time hypervisor + GPOS</text><path d="M674,1278.625 L684,1278.625 C699,1278.625 699,1250.3809 714,1250.3809 L724,1250.3809 " fill="none" style="stroke:#181818;stroke-width:1.0;"/><rect fill="#F0FFFF" height="36.4883" rx="12.5" ry="12.5" style="stroke:#181818;stroke-width:1.5;" width="248" x="724" y="1288.625"/><text fill="#000000" font-family="sans-serif" font-size="14" lengthAdjust="spacing" textLength="228" x="734" y="1312.1602">Non real-time hypervisor + RTOS</text><path d="M674,1278.625 L684,1278.625 C699,1278.625 699,1306.8691 714,1306.8691 L724,1306.8691 " fill="none" style="stroke:#181818;stroke-width:1.0;"/><rect fill="#F0FFFF" height="36.4883" rx="12.5" ry="12.5" style="stroke:#181818;stroke-width:1.5;" width="248" x="724" y="1345.1133"/><text fill="#000000" font-family="sans-serif" font-size="14" lengthAdjust="spacing" textLength="228" x="734" y="1368.6484">Non real-time hypervisor + GPOS</text><path d="M674,1278.625 L684,1278.625 C699,1278.625 699,1363.3574 714,1363.3574 L724,1363.3574 " fill="none" style="stroke:#181818;stroke-width:1.0;"/><path d="M520,936.1836 L530,936.1836 C545,936.1836 545,1278.625 560,1278.625 L570,1278.625 " fill="none" style="stroke:#181818;stroke-width:1.0;"/><text fill="#000000" font-family="sans-serif" font-size="14" font-weight="bold" lengthAdjust="spacing" textLength="61" x="573" y="1613.5313">Features</text><rect fill="#F0FFFF" height="36.4883" rx="12.5" ry="12.5" style="stroke:#181818;stroke-width:1.5;" width="84" x="684" y="1589.9961"/><text fill="#000000" font-family="sans-serif" font-size="14" font-weight="bold" lengthAdjust="spacing" textLength="64" x="694" y="1613.5313">Isolation</text><rect fill="#D3D3D3" height="135.418" rx="12.5" ry="12.5" style="stroke:#181818;stroke-width:1.5;" width="342" x="818" y="1401.6016"/><text fill="#000000" font-family="sans-serif" font-size="14" font-weight="bold" lengthAdjust="spacing" textLength="69" x="828" y="1425.1367">Temporal</text><ellipse cx="833.5" cy="1437.0781" fill="#000000" rx="2.5" ry="2.5" style="stroke:#000000;stroke-width:0.0;"/><text fill="#000000" font-family="sans-serif" font-size="14" lengthAdjust="spacing" textLength="239" x="840" y="1441.625">Ability to isolate or limit the impact</text><text fill="#000000" font-family="sans-serif" font-size="14" lengthAdjust="spacing" textLength="306" x="836" y="1458.1133">of resource consumption (e.g. CPU, network,</text><text fill="#000000" font-family="sans-serif" font-size="14" lengthAdjust="spacing" textLength="306" x="836" y="1474.6016">disk) of a virtual domain on the performance</text><text fill="#000000" font-family="sans-serif" font-size="14" lengthAdjust="spacing" textLength="253" x="836" y="1491.0898">degradation of other virtual domains</text><ellipse cx="833.5" cy="1503.0313" fill="#000000" rx="2.5" ry="2.5" style="stroke:#000000;stroke-width:0.0;"/><text fill="#000000" font-family="sans-serif" font-size="14" lengthAdjust="spacing" textLength="310" x="840" y="1507.5781">A task must not cause serious delays to other</text><text fill="#000000" font-family="sans-serif" font-size="14" lengthAdjust="spacing" textLength="230" x="836" y="1524.0664">tasks in a different virtual domain</text><path d="M768,1608.2402 L778,1608.2402 C793,1608.2402 793,1469.3105 808,1469.3105 L818,1469.3105 " fill="none" style="stroke:#181818;stroke-width:1.0;"/><rect fill="#D3D3D3" height="151.9063" rx="12.5" ry="12.5" style="stroke:#181818;stroke-width:1.5;" width="364" x="818" y="1557.0195"/><text fill="#000000" font-family="sans-serif" font-size="14" font-weight="bold" lengthAdjust="spacing" textLength="192" x="828" y="1580.5547">Spatial (memory isolation)</text><text fill="#000000" font-family="sans-serif" font-size="14" lengthAdjust="spacing" textLength="4" x="1020" y="1580.5547">:</text><ellipse cx="833.5" cy="1592.4961" fill="#000000" rx="2.5" ry="2.5" style="stroke:#000000;stroke-width:0.0;"/><text fill="#000000" font-family="sans-serif" font-size="14" lengthAdjust="spacing" textLength="318" x="840" y="1597.043">ability to isolate code and data between virtual</text><text fill="#000000" font-family="sans-serif" font-size="14" lengthAdjust="spacing" textLength="336" x="836" y="1613.5313">domains and between virtual domains and hosts.</text><ellipse cx="833.5" cy="1625.4727" fill="#000000" rx="2.5" ry="2.5" style="stroke:#000000;stroke-width:0.0;"/><text fill="#000000" font-family="sans-serif" font-size="14" lengthAdjust="spacing" textLength="299" x="840" y="1630.0195">A task must not be able to alter private data</text><text fill="#000000" font-family="sans-serif" font-size="14" lengthAdjust="spacing" textLength="294" x="836" y="1646.5078">belonging to other tasks, including devices</text><text fill="#000000" font-family="sans-serif" font-size="14" lengthAdjust="spacing" textLength="182" x="836" y="1662.9961">assigned to a specific task.</text><ellipse cx="833.5" cy="1674.9375" fill="#000000" rx="2.5" ry="2.5" style="stroke:#000000;stroke-width:0.0;"/><text fill="#000000" font-family="sans-serif" font-size="14" lengthAdjust="spacing" textLength="271" x="840" y="1679.4844">Usually implemented using HW memory</text><text fill="#000000" font-family="sans-serif" font-size="14" lengthAdjust="spacing" textLength="294" x="836" y="1695.9727">protection mechanisms (e.g, MMU, IOMMU)</text><path d="M768,1608.2402 L778,1608.2402 C793,1608.2402 793,1632.9727 808,1632.9727 L818,1632.9727 " fill="none" style="stroke:#181818;stroke-width:1.0;"/><rect fill="#D3D3D3" height="85.9531" rx="12.5" ry="12.5" style="stroke:#181818;stroke-width:1.5;" width="319" x="818" y="1728.9258"/><text fill="#000000" font-family="sans-serif" font-size="14" font-weight="bold" lengthAdjust="spacing" textLength="36" x="828" y="1752.4609">Fault</text><ellipse cx="833.5" cy="1764.4023" fill="#000000" rx="2.5" ry="2.5" style="stroke:#000000;stroke-width:0.0;"/><text fill="#000000" font-family="sans-serif" font-size="14" lengthAdjust="spacing" textLength="276" x="840" y="1768.9492">Prevents the propragation of faults from</text><text fill="#000000" font-family="sans-serif" font-size="14" lengthAdjust="spacing" textLength="278" x="836" y="1785.4375">one virtual domain to another that could</text><text fill="#000000" font-family="sans-serif" font-size="14" lengthAdjust="spacing" textLength="287" x="836" y="1801.9258">cause blockages or stop the whole system</text><path d="M768,1608.2402 L778,1608.2402 C793,1608.2402 793,1771.9023 808,1771.9023 L818,1771.9023 " fill="none" style="stroke:#181818;stroke-width:1.0;"/><path d="M634,1608.2402 L644,1608.2402 C659,1608.2402 659,1608.2402 674,1608.2402 L684,1608.2402 " fill="none" style="stroke:#181818;stroke-width:1.0;"/><path d="M520,936.1836 L530,936.1836 C545,936.1836 545,1608.2402 560,1608.2402 L570,1608.2402 " fill="none" style="stroke:#181818;stroke-width:1.0;"/><path d="M372,1033.8926 L382,1033.8926 C397,1033.8926 397,936.1836 412,936.1836 L422,936.1836 " fill="none" style="stroke:#181818;stroke-width:1.0;"/><rect fill="#90EE90" height="36.4883" rx="12.5" ry="12.5" style="stroke:#181818;stroke-width:1.5;" width="90" x="422" y="1904.3438"/><text fill="#000000" font-family="sans-serif" font-size="14" font-weight="bold" lengthAdjust="spacing" textLength="70" x="432" y="1927.8789">Container</text><rect fill="#ADD8E6" height="118.9297" rx="12.5" ry="12.5" style="stroke:#181818;stroke-width:1.5;" width="391" x="562" y="1834.8789"/><text fill="#000000" font-family="sans-serif" font-size="14" font-weight="bold" lengthAdjust="spacing" textLength="58" x="572" y="1858.4141">Concept</text><ellipse cx="577.5" cy="1870.3555" fill="#000000" rx="2.5" ry="2.5" style="stroke:#000000;stroke-width:0.0;"/><text fill="#000000" font-family="sans-serif" font-size="14" lengthAdjust="spacing" textLength="238" x="584" y="1874.9023">Virtual domain, with its own virtual</text><rect fill="#000000" height="3.5" style="stroke:#000000;stroke-width:0.0;" width="3.5" x="581" y="1884.3438"/><text fill="#000000" font-family="sans-serif" font-size="14" lengthAdjust="spacing" textLength="232" x="588" y="1891.3906">CPU, memory, filesystem, network</text><ellipse cx="577.5" cy="1903.332" fill="#000000" rx="2.5" ry="2.5" style="stroke:#000000;stroke-width:0.0;"/><text fill="#000000" font-family="sans-serif" font-size="14" lengthAdjust="spacing" textLength="274" x="584" y="1907.8789">Similar to traditional processes of an OS</text><ellipse cx="577.5" cy="1919.8203" fill="#000000" rx="2.5" ry="2.5" style="stroke:#000000;stroke-width:0.0;"/><text fill="#000000" font-family="sans-serif" font-size="14" lengthAdjust="spacing" textLength="304" x="584" y="1924.3672">Not an VM (no emulation of the physical HW)</text><ellipse cx="577.5" cy="1936.3086" fill="#000000" rx="2.5" ry="2.5" style="stroke:#000000;stroke-width:0.0;"/><text fill="#000000" font-family="sans-serif" font-size="14" lengthAdjust="spacing" textLength="359" x="584" y="1940.8555">Lighter (in comparison to full and paravirtualization)</text><path d="M512,1922.5879 L522,1922.5879 C537,1922.5879 537,1894.3438 552,1894.3438 L562,1894.3438 " fill="none" style="stroke:#181818;stroke-width:1.0;"/><text fill="#000000" font-family="sans-serif" font-size="14" font-weight="bold" lengthAdjust="spacing" textLength="90" x="565" y="1997.3438">Applications</text><rect fill="#F0FFFF" height="36.4883" rx="12.5" ry="12.5" style="stroke:#181818;stroke-width:1.5;" width="61" x="705" y="1973.8086"/><text fill="#000000" font-family="sans-serif" font-size="14" lengthAdjust="spacing" textLength="41" x="715" y="1997.3438">Cloud</text><text fill="#000000" font-family="sans-serif" font-size="14" lengthAdjust="spacing" textLength="25" x="819" y="1997.3438">e.g.</text><rect fill="#FFE4C4" height="36.4883" rx="12.5" ry="12.5" style="stroke:#181818;stroke-width:1.5;" width="101" x="894" y="1973.8086"/><text fill="#000000" font-family="sans-serif" font-size="14" font-weight="bold" lengthAdjust="spacing" textLength="81" x="904" y="1997.3438">Kubernetes</text><path d="M844,1992.0527 L854,1992.0527 C869,1992.0527 869,1992.0527 884,1992.0527 L894,1992.0527 " fill="none" style="stroke:#181818;stroke-width:1.0;"/><path d="M766,1992.0527 L776,1992.0527 C791,1992.0527 791,1992.0527 806,1992.0527 L816,1992.0527 " fill="none" style="stroke:#181818;stroke-width:1.0;"/><path d="M655,1992.0527 L665,1992.0527 C680,1992.0527 680,1992.0527 695,1992.0527 L705,1992.0527 " fill="none" style="stroke:#181818;stroke-width:1.0;"/><path d="M512,1922.5879 L522,1922.5879 C537,1922.5879 537,1992.0527 552,1992.0527 L562,1992.0527 " fill="none" style="stroke:#181818;stroke-width:1.0;"/><path d="M372,1033.8926 L382,1033.8926 C397,1033.8926 397,1922.5879 412,1922.5879 L422,1922.5879 " fill="none" style="stroke:#181818;stroke-width:1.0;"/><path d="M172,1033.8926 L182,1033.8926 C197,1033.8926 197,1033.8926 212,1033.8926 L222,1033.8926 " fill="none" style="stroke:#181818;stroke-width:1.0;"/><!--SRC=[xLXXSzis4lri_ehz9bidEx6JIpjEcadis4vIA_54YjrEh-E1I4Z2c2HO09IZTFhV-nOWASgMrBcRtitTrPvCR0ABnUxYxTi5NbadZCjKdcIYY3eT6YgNoiZn_tIfZ2j5ghuAftHEVKXH9VRTtH-YmV37yvFx4zz5BwoRf_9bLEtoHec94Hdz6dK6l7adodKYyRbr9EARYT5bdXphL1kwdIediTlMgSxT1v59-Y1lxPbsGphIQKBHLgV3KrTIJQQEHXYBjdwBZDRk0rIkq3Zn8hnceBvAEdWSRPshN0wdAhx9fRLqiFSu-YqwJ6JXfjlxEsmL4MivQsafL7xJqhB_RB7aOCsIb2sS62dpXUoJJRAZj9GBqQThHCNNqhJ4_hvvTp5VY3vR8pfIzfVspj-iKobcCa-aWMJd94yw-FtYKNNGg_2nuITQiO1gbAnSqAKNevVBw7pnQFGowlg9j_D2cfcoRAMSoRIQkZFdHpl7Ee_XPuVdkuSGg0RyxE2ApiLS6d9JuKYCh3CYTfRUNf6HLfScbZPoccGkHaWNDvKalyYuzDcYnvIeyLWQcRleicy9OonX6SV5T6vLB5AaKpm50EcvDw1xZO5SJA3MVtgBAZ-f7qI3DtJIR2JpcJ8wptYVBWtd1IjEvpsQbD8w-ZYWlv4e2e8tpwCEvgKDxbvpGFntY0MzrP0lu9f433grHHorzaGTJZ_vGLT_UbDP6RrZ0Te-4aRkPjA9T0TclUQu2VoZE1KMlhDTp-krK2Jt9dlDPvVU2vLETMbbQ-n8w6RV7viGjJQkTcPhPRBJ14acFlQwu3CH2DWNPPtA9tzWmlUN_TRN3yZSpfcFgBY5QymMxH3TcM9B_f5Z75logK-NSRSwVATbcj8gMDCOC_CM0bdb4We9_lbHV-Y83PtLfyyqKHIMJ9bJcMSQg5G82KHaLgR2IOkZLJELoWc6LOuzofZtPgq2bAzXkZV6RWhNPVyAljF9u0UrDeXz5HjjzTYHpyFTotNdUI6CcAqAHEDLLkBtI5Bj3-QETPQLET3FBjqgDxqJUGxI51GscOP1JXDsgTDPE7NoHMH5kZ3clfyU2FHfIBOi2crS6mIVf4XtdSfaS_o38BJcq7dD1s3JjDUjYycdPI6OMgGgLgusXCQQcKh2pK0Yp0XKuO_NOM9K9XFf1oNOXFXml7yzil5K9cNAQI7IYJO8NyOmwal81sOBst4KLSPoiMQi29MxDZ3Or3VpN6GghWpj2w3lij-W5HY34i3HUyEia4kP07iB9VV2VWT9ww4K341ZuPhzGUbZDIa3Xb6umEZMKpgiAD20A3- -b4vTsZ_SvrwdO4T7qjsYSbE5o2ej6Wu_llZCAzx8cS9QlmhE9Ch8s25h4H_jeLSb9sKoqmRPZ5FdTOCCE4IH6QDjGIBchaUk9l7D8Lb1ae4bE_IwuDCAMTjY-_Rm0cjqaeraad0I-S_170IQFUeh4BNEgy4py9g1jnUbARILLTOiQWX0rQ3UP-bY0o-4x1of_DxM3QfRYOg2zMduSR1PukoYaLXAeRLwDaXvNMX2JgLmQAZimkfwf6KnHjzPdRQxZgOCoGoPAAgEWrwFLAhSdAbP-HMIV3EMgP1IAYl0vi06yh593iwgCYiy9hVvn1bVFQI8kzNcfWVfHDcR7L_BQaHIeZFaOTrYm3Dm0KWWvfnF91gfHDHDYOQ4kREGOVYQdB0tWLTpxIWM01PPQHGG1YN86ykU-FMCPqXRW1jMD7tENNkUjs8pA602fhOh-AiwXZiShKDO8Ew7A-QR0ISRx1Shyh0otulScLsQcw8bi7ihl4G52RsR1kqv18PB8U_C6p9XobJd4oQ1slNWU0-UnscPy4mI4fzf0GapoP7yh8vi8MFKfjYluCq_sz8djU8Im-mCoTAo2f1F20jJaj5E-WACiNWgScKpww7GetuVK7Zt4Rzsbe9xAigqAZ9qOT3qvbMJ06M54PFczCSiQ6biTCQuG-TvvyZOyhnobBlUM9UuCb45Xr6gunlkJnd8bbigtkHsgX52wra3PcqXbL89PhOAfzSvXWi-We4HOKWdPD77mUxvtVuSNErWXgpQymvL_VZA_hnRDqkLyRrGzHKSrBSBc42pJw4GuHwDqUe4OvkqOXf6MgR2-3uA-UAB0ZGZW3XRw_cDcqUc4r29uxzHqxPpNRLHLO1zqElAyFQAkz1pldqXdji8RwoHymRmzf7cjYxKadlzpevlJ9Pu_0zf_3ZLPHAjgXQywFjo90tyhTlzpcwNkjrXb-kIXh4gfFU8ut-FMdh4zGXulOxh4xfU3ZTR2tspRhKE8VUkrNhggkSvWwDqlJdCrpsO9xpMHcVxv1OMrjHOA_7R0gscrGVjiRyqdE8AqwnhoZsNOcPLN0hYq4RvxgZnjBOuR1rKlMvFMyyb2ulgMrsrhkqehb1Mejt2Llx6Y9sLzLvkHD9Kc8Jl5c7pKz_fOLjk8JGVZeTL81u6rUuQLFN2CiVN9JqEmLr-vC5i6l2wTglAxH0s76fWQFy7eivN25poWCJspPInvRSRbyQJ2pZGw9dagqaDPL_wTAhgMjMwBzVkuzXdMZ7hUcL6LekPdo6BUu5r8hvfcrvfk6V-xaYmiVVTds2Q5MQQ3Iyp50ORR5Vj1YA0mT9F-z_q3fxyt2Ff-TuJ_EqKTGYzCTHmLRGumRguSQYi-YgzmdO7tLnefFD8ddatIIGDT9gA6PurUlm-bWP5F02Qhxho2fRQeATd_I6ueWWsA1cg2Ph-1INGJmTFVzxP-wUVRbx9FAbV3wDNIu-9czyGrpuARduCV7ZU-uy_xxKUzlwyXxU_o7FRYcUsXrUrEuyf3sze_mTlQ1kVonuUo1uUoFwx7iZ-7GzY_pilNG-lMm-lMm-lM__owzRAfwg_ullKd_eUjNIJl4X5xZxtpmdNMgPSsjyxU7nmiBV_T7jOIbIIc1u_e_rl3m-U7ku_eQkJ8V7yJhHzTd5E5TVmYuvH8z-sxqJlnKpGfp9dJZma_jeUzdTeS58Fqachitz_sGz2z5QxGQ6T5txsTFS8x3O0do9UgBTlf8SSbYAN0VL3-ZmytVqsEXVvf0II3d5TY8vnhN9cVaXdHxy3]--></g></svg>